<svg xmlns="http://www.w3.org/2000/svg" xmlns:xlink="http://www.w3.org/1999/xlink" width="500" zoomAndPan="magnify" viewBox="0 0 375 374.999991" height="500" preserveAspectRatio="xMidYMid meet" version="1.0"><defs><g/><clipPath id="1a7b50d8cc"><path d="M 95.296875 113.035156 L 279.796875 113.035156 L 279.796875 259 L 95.296875 259 Z M 95.296875 113.035156 " clip-rule="nonzero"/></clipPath></defs><path fill="#ffffff" d="M 71.859375 268.640625 C 71.332031 265.5625 70.027344 262.667969 68.089844 260.242188 L 68.089844 260.238281 C 65.898438 257.492188 62.886719 255.347656 59.277344 254.210938 C 49.625 251.179688 39.335938 256.546875 36.304688 266.203125 C 33.273438 275.859375 38.644531 286.144531 48.296875 289.175781 C 57.953125 292.207031 68.242188 286.839844 71.273438 277.183594 C 72.167969 274.328125 72.332031 271.410156 71.859375 268.640625 Z M 71.859375 268.640625 " fill-opacity="1" fill-rule="nonzero"/><path fill="#ffffff" d="M 233.371094 56.453125 C 146.761719 29.261719 54.503906 77.421875 27.3125 164.03125 C 18.597656 191.792969 17.621094 220.132812 23.171875 246.726562 C 32.011719 235.890625 46.214844 230.304688 60.445312 232.761719 C 57.519531 214.273438 58.710938 194.839844 64.699219 175.769531 C 85.410156 109.808594 155.671875 73.128906 221.628906 93.839844 C 279.675781 112.066406 315.046875 168.660156 308.585938 226.929688 C 316.21875 224.355469 324.710938 224.089844 332.988281 226.6875 C 338.375 228.378906 343.140625 231.117188 347.132812 234.605469 C 357.398438 156.90625 310.714844 80.742188 233.371094 56.453125 Z M 233.371094 56.453125 " fill-opacity="1" fill-rule="nonzero"/><path fill="#ffffff" d="M 326.648438 246.894531 C 316.992188 243.863281 306.707031 249.230469 303.671875 258.886719 C 300.640625 268.542969 306.011719 278.824219 315.667969 281.859375 C 324.082031 284.496094 332.96875 280.769531 337.125 273.378906 C 337.125 273.375 337.125 273.375 337.125 273.375 C 337.738281 272.285156 338.246094 271.109375 338.640625 269.867188 C 338.835938 269.246094 338.992188 268.625 339.121094 268 C 339.121094 268 339.121094 267.996094 339.121094 267.996094 C 340.964844 258.917969 335.683594 249.726562 326.648438 246.894531 Z M 326.648438 246.894531 " fill-opacity="1" fill-rule="nonzero"/><g clip-path="url(#1a7b50d8cc)"><path fill="#ffffff" d="M 279.625 205.164062 C 279.625 154.289062 238.382812 113.042969 187.503906 113.042969 C 136.625 113.042969 95.382812 154.289062 95.382812 205.164062 L 112.71875 205.164062 C 101.808594 220.300781 95.382812 238.882812 95.382812 258.964844 L 279.625 258.964844 C 279.625 238.882812 273.203125 220.300781 262.292969 205.164062 Z M 279.625 205.164062 " fill-opacity="1" fill-rule="nonzero"/></g><path fill="#000000" d="M 158.074219 152.929688 C 148.359375 152.929688 140.480469 160.808594 140.480469 170.527344 C 140.480469 180.246094 148.359375 188.121094 158.074219 188.121094 C 167.792969 188.121094 175.671875 180.246094 175.671875 170.527344 C 175.671875 160.808594 167.792969 152.929688 158.074219 152.929688 Z M 158.074219 178.835938 C 153.484375 178.835938 149.769531 175.113281 149.769531 170.527344 C 149.769531 165.9375 153.488281 162.21875 158.074219 162.21875 C 162.664062 162.21875 166.382812 165.9375 166.382812 170.527344 C 166.382812 175.113281 162.664062 178.835938 158.074219 178.835938 Z M 158.074219 178.835938 " fill-opacity="1" fill-rule="nonzero"/><path fill="#000000" d="M 217.933594 152.929688 C 208.214844 152.929688 200.335938 160.808594 200.335938 170.527344 C 200.335938 180.246094 208.214844 188.121094 217.933594 188.121094 C 227.648438 188.121094 235.527344 180.246094 235.527344 170.527344 C 235.527344 160.808594 227.648438 152.929688 217.933594 152.929688 Z M 217.933594 178.835938 C 213.34375 178.835938 209.625 175.113281 209.625 170.527344 C 209.625 165.9375 213.34375 162.21875 217.933594 162.21875 C 222.519531 162.21875 226.238281 165.9375 226.238281 170.527344 C 226.238281 175.113281 222.523438 178.835938 217.933594 178.835938 Z M 217.933594 178.835938 " fill-opacity="1" fill-rule="nonzero"/><g fill="#ffffff" fill-opacity="1"><g transform="translate(91.492996, 321.234274)"><g><path d="M 6.5 0 L 6.5 -50.4375 L 21.125 -50.4375 C 26.863281 -50.4375 31.675781 -49.441406 35.5625 -47.453125 C 39.457031 -45.460938 42.394531 -42.5625 44.375 -38.75 C 46.363281 -34.945312 47.359375 -30.3125 47.359375 -24.84375 C 47.359375 -19.601562 46.34375 -15.132812 44.3125 -11.4375 C 42.28125 -7.738281 39.3125 -4.90625 35.40625 -2.9375 C 31.5 -0.976562 26.71875 0 21.0625 0 Z M 15.5625 -8.3125 L 20.171875 -8.3125 C 22.953125 -8.3125 25.457031 -8.601562 27.6875 -9.1875 C 29.925781 -9.769531 31.832031 -10.722656 33.40625 -12.046875 C 34.976562 -13.367188 36.1875 -15.109375 37.03125 -17.265625 C 37.875 -19.429688 38.296875 -22.085938 38.296875 -25.234375 C 38.296875 -29.234375 37.71875 -32.46875 36.5625 -34.9375 C 35.40625 -37.414062 33.554688 -39.226562 31.015625 -40.375 C 28.472656 -41.53125 25.128906 -42.109375 20.984375 -42.109375 L 15.5625 -42.109375 Z M 15.5625 -8.3125 "/></g></g></g><g fill="#ffffff" fill-opacity="1"><g transform="translate(141.763456, 321.234274)"><g><path d="M 0.421875 0 L 20.625 -50.4375 L 27.40625 -50.4375 L 47.5 0 L 37.71875 0 L 33.828125 -10.953125 L 14.234375 -10.953125 L 10.3125 0 Z M 17.3125 -18.703125 L 30.765625 -18.703125 L 24.0625 -37.125 Z M 17.3125 -18.703125 "/></g></g></g><g fill="#ffffff" fill-opacity="1"><g transform="translate(189.679161, 321.234274)"><g><path d="M 20.921875 0.578125 C 18.679688 0.578125 16.492188 0.269531 14.359375 -0.34375 C 12.234375 -0.96875 10.285156 -1.894531 8.515625 -3.125 C 6.742188 -4.351562 5.25 -5.894531 4.03125 -7.75 C 2.820312 -9.601562 2.015625 -11.765625 1.609375 -14.234375 L 10.59375 -16.53125 C 10.8125 -14.4375 11.414062 -12.722656 12.40625 -11.390625 C 13.394531 -10.054688 14.632812 -9.066406 16.125 -8.421875 C 17.625 -7.773438 19.269531 -7.453125 21.0625 -7.453125 C 22.863281 -7.453125 24.378906 -7.738281 25.609375 -8.3125 C 26.835938 -8.882812 27.769531 -9.65625 28.40625 -10.625 C 29.050781 -11.601562 29.375 -12.691406 29.375 -13.890625 C 29.375 -15.191406 29.023438 -16.304688 28.328125 -17.234375 C 27.640625 -18.160156 26.71875 -18.960938 25.5625 -19.640625 C 24.414062 -20.328125 23.113281 -20.957031 21.65625 -21.53125 C 20.207031 -22.113281 18.707031 -22.707031 17.15625 -23.3125 C 15.613281 -23.925781 14.117188 -24.617188 12.671875 -25.390625 C 11.222656 -26.160156 9.921875 -27.078125 8.765625 -28.140625 C 7.609375 -29.203125 6.6875 -30.472656 6 -31.953125 C 5.3125 -33.441406 4.96875 -35.210938 4.96875 -37.265625 C 4.96875 -39.492188 5.378906 -41.472656 6.203125 -43.203125 C 7.035156 -44.929688 8.179688 -46.390625 9.640625 -47.578125 C 11.109375 -48.765625 12.789062 -49.660156 14.6875 -50.265625 C 16.582031 -50.878906 18.585938 -51.1875 20.703125 -51.1875 C 23.816406 -51.1875 26.71875 -50.476562 29.40625 -49.0625 C 32.09375 -47.644531 34.304688 -45.398438 36.046875 -42.328125 L 28.515625 -37.71875 C 27.640625 -39.4375 26.484375 -40.765625 25.046875 -41.703125 C 23.617188 -42.640625 22.0625 -43.109375 20.375 -43.109375 C 19.1875 -43.109375 18.109375 -42.878906 17.140625 -42.421875 C 16.179688 -41.972656 15.421875 -41.34375 14.859375 -40.53125 C 14.304688 -39.726562 14.03125 -38.789062 14.03125 -37.71875 C 14.03125 -36.53125 14.375 -35.515625 15.0625 -34.671875 C 15.75 -33.828125 16.671875 -33.085938 17.828125 -32.453125 C 18.984375 -31.828125 20.285156 -31.234375 21.734375 -30.671875 C 23.179688 -30.117188 24.675781 -29.535156 26.21875 -28.921875 C 27.769531 -28.316406 29.269531 -27.617188 30.71875 -26.828125 C 32.175781 -26.046875 33.484375 -25.113281 34.640625 -24.03125 C 35.796875 -22.945312 36.71875 -21.644531 37.40625 -20.125 C 38.09375 -18.601562 38.4375 -16.796875 38.4375 -14.703125 C 38.4375 -12.328125 37.976562 -10.191406 37.0625 -8.296875 C 36.144531 -6.398438 34.882812 -4.789062 33.28125 -3.46875 C 31.675781 -2.15625 29.8125 -1.148438 27.6875 -0.453125 C 25.570312 0.234375 23.316406 0.578125 20.921875 0.578125 Z M 20.921875 0.578125 "/></g></g></g><g fill="#ffffff" fill-opacity="1"><g transform="translate(230.245173, 321.234274)"><g><path d="M 6.5 0 L 6.5 -50.4375 L 15.5625 -50.4375 L 15.5625 -29.375 L 37.65625 -29.375 L 37.65625 -50.4375 L 46.71875 -50.4375 L 46.71875 0 L 37.65625 0 L 37.65625 -21.0625 L 15.5625 -21.0625 L 15.5625 0 Z M 6.5 0 "/></g></g></g></svg>